<svg viewBox="0 0 78 54" fill="currentColor" xmlns="http://www.w3.org/2000/svg">
<path d="M39 7.75C52.265 7.75 64.095 15.205 69.87 27C64.095 38.795 52.3 46.25 39 46.25C25.7 46.25 13.905 38.795 8.13 27C13.905 15.205 25.735 7.75 39 7.75ZM39 0.75C21.5 0.75 6.555 11.635 0.5 27C6.555 42.365 21.5 53.25 39 53.25C56.5 53.25 71.445 42.365 77.5 27C71.445 11.635 56.5 0.75 39 0.75ZM39 18.25C43.83 18.25 47.75 22.17 47.75 27C47.75 31.83 43.83 35.75 39 35.75C34.17 35.75 30.25 31.83 30.25 27C30.25 22.17 34.17 18.25 39 18.25ZM39 11.25C30.32 11.25 23.25 18.32 23.25 27C23.25 35.68 30.32 42.75 39 42.75C47.68 42.75 54.75 35.68 54.75 27C54.75 18.32 47.68 11.25 39 11.25Z" fill="white"/>
</svg>
