<svg viewBox="0 0 683 502" fill="none" xmlns="http://www.w3.org/2000/svg">
<path d="M634.667 4.00001C628.4 6.93335 598.667 36.1333 421.333 213.333L215.333 419.333L134.667 338.8C90.2666 294.533 51.8666 257.2 49.3333 255.867C42.8 252.4 26.5333 252.4 19.6 255.867C12.4 259.467 6.79995 265.467 2.93329 273.867C-1.06671 282.533 -0.666715 292.8 3.99995 302.133C8.13329 310.4 191.6 493.867 199.867 498C203.2 499.6 209.2 501.333 213.467 501.6C219.733 502.267 222.267 501.733 228.8 498.8C235.867 495.6 257.333 474.667 456.267 275.6C655.333 76.6667 676.267 55.2 679.467 48.1334C682.4 41.6 682.933 39.0667 682.267 32.6667C680.667 15.0667 667.733 2.26668 650 1.06668C643.467 0.666681 640.667 1.06668 634.667 4.00001Z" fill="#2E64BB"/>
</svg>
