<svg viewBox="0 0 264 264" fill="none" xmlns="http://www.w3.org/2000/svg">
<path fill-rule="evenodd" clip-rule="evenodd" d="M257.513 207.993C256.443 212.078 255.135 216.097 253.597 220.029C227.152 211.258 201.908 199.211 178.459 184.168L189.386 172.73H189.384C189.866 172.193 190.642 172.034 191.297 172.336L252.823 198.412C254.638 199.165 256.114 200.552 256.979 202.317C257.842 204.082 258.032 206.1 257.513 207.994L257.513 207.993ZM194.194 257.505C220.782 259.8 239.858 249.119 251.098 225.723C223.979 216.675 198.107 204.244 174.098 188.722L165.879 197.319C164.758 198.514 163.29 199.327 161.68 199.642C160.07 199.958 158.404 199.757 156.914 199.07C119.596 182.217 81.7719 144.395 64.9255 107.067C64.2386 105.579 64.0393 103.911 64.3547 102.303C64.6682 100.694 65.4808 99.225 66.6766 98.1027L74.7451 90.3924H74.7432C58.9311 66.4887 46.2054 40.681 36.8733 13.5815C14.4495 24.9181 4.23514 43.7461 6.48941 69.8015C9.49431 104.548 35.1049 149.089 75.0092 188.988C114.914 228.887 159.464 254.495 194.192 257.502L194.194 257.505ZM56.0004 6.47672C56.695 6.2871 57.4129 6.18842 58.1327 6.18455C59.7251 6.18455 61.2827 6.65667 62.6081 7.53899C63.9335 8.42325 64.9687 9.67896 65.5821 11.1476L91.6625 72.6726H91.6605C91.9624 73.3285 91.8018 74.1044 91.2639 74.5862L79.2926 86.0233V86.0214C63.9432 62.6497 51.5905 37.4404 42.5253 10.9888C46.9118 9.18353 51.4122 7.67624 56 6.47467L56.0004 6.47672ZM255.239 192.726L193.709 166.638C192.234 166.003 190.599 165.837 189.026 166.162C187.455 166.487 186.019 167.288 184.918 168.457L161.417 193.045H161.415C160.922 193.589 160.13 193.744 159.469 193.425C123.402 177.148 86.8476 140.593 70.5659 104.528C70.2466 103.866 70.4014 103.071 70.9471 102.577L95.536 79.0817C96.7028 77.9788 97.5038 76.5432 97.8289 74.9682C98.1539 73.3951 97.9875 71.7601 97.3529 70.2838L71.2799 8.75885C69.9526 5.56823 67.5068 2.96942 64.4032 1.45074C61.2996 -0.0700722 57.7468 -0.408679 54.4113 0.498766C5.8317 13.362 -1.8143 45.5699 0.315641 70.3304C3.44245 106.47 29.7242 152.466 70.6285 193.366C111.533 234.265 157.535 260.542 193.67 263.683C196.023 263.884 198.441 264 200.904 264C224.375 264 251.854 253.555 263.505 209.593L263.507 209.595C264.408 206.259 264.066 202.711 262.545 199.609C261.024 196.507 258.428 194.064 255.241 192.732L255.239 192.726Z" fill="currentColor"/>
</svg>
