<svg viewBox="0 0 223 223" fill="currentColor" xmlns="http://www.w3.org/2000/svg">
<path d="M111.5 0C50.0153 0 0 50.0153 0 111.5C0 172.985 50.0153 223 111.5 223C172.985 223 223 172.985 223 111.5C223 50.0153 172.985 0 111.5 0ZM111.5 18.5833C162.931 18.5833 204.417 60.0692 204.417 111.5C204.417 162.931 162.931 204.417 111.5 204.417C60.0692 204.417 18.5833 162.931 18.5833 111.5C18.5833 60.0692 60.0692 18.5833 111.5 18.5833ZM111.5 55.75C91.0656 55.75 74.3333 72.4823 74.3333 92.9167H92.9167C92.9167 82.5361 101.119 74.3333 111.5 74.3333C121.881 74.3333 130.083 82.5361 130.083 92.9167C130.083 100.031 125.51 106.346 118.759 108.596L114.984 109.758C107.399 112.262 102.208 119.521 102.208 127.47V139.375H120.792V127.47L124.566 126.309C138.867 121.554 148.667 107.979 148.667 92.9167C148.667 72.4823 131.934 55.75 111.5 55.75ZM102.208 148.667V167.25H120.792V148.667H102.208Z" fill="currentColor"/>
</svg>
