<svg viewBox="0 0 598 683" fill="none" xmlns="http://www.w3.org/2000/svg">
<path d="M50 2.13335C32.5333 6.80002 16.2666 19.2 8.39997 34.1334C0.133301 49.4667 0.666634 29.4667 0.666634 341.333C0.666634 653.067 0.133301 633.2 8.39997 648.533C10.4 652.267 15.6 659.067 20.1333 663.467C39.7333 683.067 70.2666 688.133 94.4 675.867C104.533 670.667 562.533 399.733 570.4 394.267C603.067 371.6 607.333 324.4 579.467 296.133C572.933 289.6 541.2 270.267 338.667 150.667C210.4 74.8 101.733 10.8 97.3333 8.53335C82.1333 0.40002 65.2 -1.86665 50 2.13335Z" fill="#3B82F6"/>
</svg>
