<?xml version="1.0" standalone="no"?>
<!DOCTYPE svg PUBLIC "-//W3C//DTD SVG 20010904//EN"
 "http://www.w3.org/TR/2001/REC-SVG-20010904/DTD/svg10.dtd">
<svg version="1.0" xmlns="http://www.w3.org/2000/svg"
 viewBox="0 0 512.000000 512.000000"
 preserveAspectRatio="xMidYMid meet">

<g transform="translate(0.000000,512.000000) scale(0.100000,-0.100000)"
fill="#000000" stroke="none">
<path d="M681 3984 c-169 -45 -301 -180 -346 -351 -23 -87 -22 -2060 0 -2148
45 -172 179 -305 352 -350 87 -23 2540 -22 2628 0 172 45 305 179 350 352 10
38 15 106 15 200 0 79 4 143 8 143 5 0 168 -68 363 -152 350 -150 355 -152
429 -152 60 0 86 5 130 25 71 34 126 89 159 158 l26 56 0 790 c0 892 4 843
-78 933 -74 79 -180 120 -276 106 -26 -4 -199 -72 -386 -152 -187 -79 -348
-147 -357 -149 -17 -5 -18 6 -18 139 0 95 -5 163 -15 201 -45 173 -178 307
-350 352 -86 22 -2550 22 -2634 -1z m2605 -330 c15 -11 37 -33 48 -48 21 -27
21 -33 21 -1046 0 -1013 0 -1019 -21 -1046 -11 -15 -33 -37 -48 -48 -27 -21
-30 -21 -1286 -21 -1256 0 -1259 0 -1286 21 -15 11 -37 33 -48 48 -21 27 -21
35 -24 1019 -1 546 0 1006 3 1024 7 40 49 91 90 109 24 11 256 13 1277 11
1242 -2 1247 -2 1274 -23z m1191 -1810 c-1 -2 -181 74 -400 169 l-397 172 0
375 0 375 398 171 397 170 3 -714 c1 -394 1 -717 -1 -718z"/>
</g>
</svg>
