<svg viewBox="0 0 251 254" xmlns="http://www.w3.org/2000/svg">
    <path d="M214.422 37.6093C190.836 13.8967 159.429 0.905273 126.005 0.905273C57.1372 0.905273 1.00905 57.0334 1.00905 125.901C1.00905 147.974 6.81106 169.416 17.6583 188.335L0 253.167L66.2186 235.761C84.5075 245.725 105.067 251.022 126.005 251.022C194.872 251.022 251 194.894 251 126.027C251 92.6022 238.009 61.1957 214.422 37.6093ZM126.005 229.832C107.337 229.832 89.0482 224.787 73.0296 215.327L69.2457 213.057L29.893 223.4L40.3618 185.056L37.8392 181.146C27.4965 164.623 21.9467 145.451 21.9467 125.901C21.9467 68.6374 68.6151 21.9691 125.878 21.9691C153.627 21.9691 179.736 32.8163 199.286 52.4927C218.963 72.1691 229.684 98.2781 229.684 126.027C229.936 183.29 183.268 229.832 126.005 229.832ZM183.016 152.136C179.862 150.622 164.474 143.055 161.699 141.919C158.798 140.91 156.78 140.406 154.636 143.433C152.492 146.586 146.564 153.649 144.798 155.668C143.032 157.812 141.14 158.064 137.987 156.424C134.834 154.911 124.743 151.505 112.887 140.91C103.553 132.586 97.3729 122.369 95.4809 119.216C93.7151 116.063 95.2286 114.423 96.8683 112.783C98.2558 111.396 100.022 109.125 101.535 107.36C103.049 105.594 103.679 104.206 104.688 102.188C105.697 100.044 105.193 98.2781 104.436 96.7646C103.679 95.251 97.3729 79.8631 94.8502 73.5565C92.3276 67.5023 89.6789 68.259 87.7869 68.1329C85.895 68.1329 83.8769 68.1329 81.7327 68.1329C79.5884 68.1329 76.309 68.8897 73.408 72.043C70.6332 75.1962 62.5608 82.7641 62.5608 98.152C62.5608 113.54 73.7864 128.423 75.3 130.441C76.8136 132.586 97.3729 164.118 128.653 177.614C136.095 180.894 141.897 182.786 146.438 184.173C153.879 186.57 160.69 186.191 166.114 185.434C172.168 184.551 184.655 177.867 187.178 170.551C189.827 163.235 189.827 157.055 188.944 155.668C188.061 154.28 186.169 153.649 183.016 152.136Z" fill="currentColor"></path>
</svg>