 <svg
                                
                                viewBox="0 0 1231 199"
                                fill="none"
                                xmlns="http://www.w3.org/2000/svg"
                            >
                                <path
                                    d="M138.821 39.667L99.153 79.322L118.986 99.154L138.817 79.326L178.474 118.994L198.308 99.162L138.821 39.667Z"
                                    fill="#070707"
                                />
                                <path
                                    d="M138.813 118.994L99.148 158.648L79.318 138.816L99.153 118.988L79.32 99.154L59.488 118.984L39.66 99.148L59.493 79.32L79.32 59.488H79.322L118.996 19.834L99.166 0L0 99.144L99.141 198.308L158.639 138.822L138.813 118.994Z"
                                    fill="#070707"
                                />
                                <path
                                    d="M530.75 149.213L530.725 49.0925L512.063 49.0973L512.088 149.217L530.75 149.213Z"
                                    fill="#070707"
                                />
                                <path
                                    d="M414.473 124.375L383.69 49.091H362.074L403.59 149.215H425.268L466.733 49.091H445.098L414.473 124.375Z"
                                    fill="#070707"
                                />
                                <path
                                    d="M250.957 126.92L250.952 109.674H307.982L307.977 87.761H250.952L250.94 71.397H316.757L316.751 49.091H232.276L232.311 149.215H316.791L316.777 126.92H250.957Z"
                                    fill="#070707"
                                />
                                <path
                                    d="M1230.09 126.92H1164.27L1164.26 109.674H1221.29L1221.28 87.761H1164.25L1164.24 71.397H1230.07L1230.06 49.091H1145.57L1145.61 149.215H1230.09V126.92Z"
                                    fill="#070707"
                                />
                                <path
                                    d="M742.336 126.92V109.674H799.352V87.761H742.332L742.324 71.397H808.135L808.127 49.091H723.652L723.69 149.215H808.166V126.92H742.336Z"
                                    fill="#070707"
                                />
                                <path
                                    d="M671.871 63.63C669.775 59.114 666.859 55.554 663.137 52.974C659.537 50.386 655.715 49.091 651.647 49.091H579.053L579.088 149.216H651.682C655.821 149.216 659.623 147.923 663.117 145.355C666.753 142.759 669.667 139.218 671.86 134.679C674.182 130.138 675.296 125.249 675.197 119.982L675.186 78.332C675.27 73.058 674.182 68.182 671.871 63.63ZM653.965 123.506C652.317 125.643 650.219 126.793 647.746 126.92H597.744L597.732 71.398H647.712C650.208 71.25 652.294 72.369 653.949 74.755C655.652 76.927 656.518 79.727 656.518 83.089V115.242C656.52 118.41 655.674 121.162 653.965 123.506Z"
                                    fill="#070707"
                                />
                                <path
                                    d="M1078.55 113.689V115.242C1078.55 118.412 1077.69 121.162 1076.01 123.504C1074.35 125.645 1072.27 126.789 1069.76 126.916H1028.77C1026.36 126.871 1024.3 125.768 1022.59 123.576C1020.85 121.224 1019.97 118.461 1019.97 115.246L1019.96 83.093C1019.96 79.729 1020.82 76.963 1022.52 74.832C1024.27 72.494 1026.36 71.347 1028.75 71.399H1069.73C1072.24 71.252 1074.33 72.37 1075.99 74.756C1077.68 76.929 1078.54 79.727 1078.54 83.091V84.764H1097.21V78.329C1097.25 70.247 1095.11 63.365 1090.82 57.652C1086.56 51.953 1081.34 49.09 1075.23 49.09H1023.27C1017.18 49.09 1012.03 51.951 1007.74 57.652C1003.43 63.362 1001.3 70.245 1001.3 78.329L1001.32 119.975C1001.32 128.055 1003.44 134.965 1007.71 140.659C1012.01 146.366 1017.19 149.214 1023.29 149.214H1075.27C1081.39 149.214 1086.58 146.366 1090.84 140.659C1095.14 134.962 1097.26 128.055 1097.23 119.975V113.694H1078.55V113.689Z"
                                    fill="#070707"
                                />
                                <path
                                    d="M934.229 49.091L934.254 119.408L875.108 49.091H856.451L856.49 149.215H875.149L875.129 79L934.27 149.215H952.992L952.959 49.091H934.229Z"
                                    fill="#070707"
                                />
                            </svg>